<svg width="24" height="24" viewBox="0 0 50 50" fill="none" xmlns="http://www.w3.org/2000/svg">
<g clip-path="url(#clip0_24_532)">
<path d="M31.333 28.5463C30.0854 30.7568 27.7122 32.2621 24.9864 32.2621C22.2741 32.2621 19.9145 30.7839 18.6669 28.587C18.0566 27.5157 17.704 26.2952 17.704 24.9797C17.704 20.9521 20.9587 17.6974 24.9864 17.6974C27.6715 17.6974 30.0176 19.162 31.2788 21.3318L37.6389 17.6702C35.103 13.3036 30.3837 10.3608 24.9728 10.3608C16.8903 10.3608 10.3539 16.9108 10.3539 24.9797C10.3539 27.6242 11.059 30.1195 12.2931 32.2621C14.8155 36.6424 19.5619 39.5987 24.9864 39.5987C30.4244 39.5987 35.1708 36.6288 37.6932 32.2215L31.333 28.5463ZM39.3748 21.5216H37.9237V28.5328H39.3748V21.5216ZM42.5888 21.5216H41.1377V28.5328H42.5888V21.5216Z" fill="currentColor"/>
<path d="M43.7685 22.7015H36.7576V24.1525H43.7685V22.7015ZM43.7685 25.9019H36.7576V27.353H43.7685V25.9019Z" fill="currentColor"/>
<path d="M45.0079 11.6325L26.5079 0.876664C25.5757 0.334692 24.4243 0.334692 23.4921 0.876663L4.99214 11.6325C4.06837 12.1696 3.5 13.1574 3.5 14.226V35.8655C3.5 36.9581 4.09401 37.9643 5.05064 38.4922L23.5423 48.6957C24.449 49.1959 25.5495 49.1933 26.4538 48.6886L44.9621 38.3584C45.9116 37.8284 46.5 36.8262 46.5 35.7388V14.226C46.5 13.1574 45.9316 12.1696 45.0079 11.6325Z" stroke="currentColor"/>
</g>
<defs>
<clipPath id="clip0_24_532">
<rect width="50" height="50" fill="white"/>
</clipPath>
</defs>
</svg>
