<svg width="42" height="45" viewBox="0 0 90 90" fill="none" xmlns="http://www.w3.org/2000/svg">

<path fill-rule="evenodd" clip-rule="evenodd" d="M78.7433 65.9826L46.2802 84.0863C45.5401 84.499 44.6393 84.5 43.8983 84.0889L11.2614 65.9816C10.4829 65.5497 10 64.7295 10 63.8392V27.5536C10 26.676 10.4694 25.8654 11.2307 25.4286L43.8675 6.70146C44.6243 6.26719 45.555 6.26822 46.3109 6.70418L78.7741 25.4277C79.5326 25.8652 80 26.6743 80 27.55V63.8428C80 64.7312 79.5191 65.5499 78.7433 65.9826ZM41.4276 14.0014C43.541 12.8342 46.1067 12.8383 48.2162 14.0125L71.4142 26.9237C73.6339 28.1591 75.01 30.4999 75.01 33.0402V57.619C75.01 60.537 73.4213 63.2235 70.8643 64.6293L48.4731 76.94C46.3672 78.0978 43.8146 78.0944 41.7118 76.931L18.3362 63.998C16.108 62.7651 14.725 60.4195 14.725 57.8729V32.8805C14.725 30.3321 16.1099 27.9851 18.3406 26.753L41.4276 14.0014Z" fill="currentColor"/>
<path d="M54.9902 54.2233C57.1372 53.0993 59.7868 53.7881 61.1145 55.8155V55.8155C62.6172 58.1101 61.8489 61.1983 59.4461 62.5213L48.2561 68.6826C46.1667 69.833 43.6354 69.8403 41.5393 68.7021L25.5595 60.0245C23.3043 58.7998 21.9 56.4392 21.9 53.873V37.0162C21.9 34.4856 23.2658 32.1521 25.4722 30.9129L41.4572 21.9353C43.5958 20.7342 46.207 20.74 48.3401 21.9507L59.3382 28.1926C61.7865 29.5821 62.5106 32.7754 60.9011 35.0851V35.0851C59.5049 37.0888 56.8231 37.7183 54.6811 36.5452L48.1106 32.9469C45.9787 31.7794 43.3939 31.8013 41.2822 33.0048L35.2671 36.4329C33.0822 37.6782 31.7332 39.9997 31.7332 42.5146V48.0576C31.7332 50.5492 33.0576 52.8529 35.2107 54.1067L41.3377 57.6746C43.4178 58.8858 45.9744 58.9434 48.1069 57.8269L54.9902 54.2233Z" fill="currentColor"/>
</svg>
