<svg width="24" height="25" viewBox="0 0 50 32" fill="none" xmlns="http://www.w3.org/2000/svg">
<g clip-path="url(#clip0_26_581)">
<path d="M2.53948 16.0394C2.41196 15.9039 2.25655 15.7963 2.0852 15.7206C1.91385 15.6449 1.73054 15.609 1.54325 15.609C1.35596 15.605 1.17265 15.6449 1.0013 15.7166C0.829949 15.7923 0.674537 15.8999 0.54702 16.0354C0.415518 16.1669 0.31191 16.3223 0.244166 16.4936C0.176422 16.669 0.140558 16.8523 0.140558 17.0356C0.136573 17.2229 0.172438 17.4062 0.244166 17.5776C0.315895 17.7489 0.419502 17.9043 0.551005 18.0358C0.67856 18.1714 0.833132 18.2786 1.00473 18.3507C1.17634 18.4228 1.36115 18.4581 1.54723 18.4542C1.73292 18.4553 1.9169 18.4187 2.0881 18.3468C2.2593 18.2749 2.41419 18.1691 2.54346 18.0358C2.67895 17.9083 2.78256 17.7529 2.85429 17.5815C2.92602 17.4102 2.96188 17.2269 2.96188 17.0396C2.96188 16.8523 2.92602 16.669 2.85429 16.4976C2.77857 16.3223 2.67497 16.1669 2.53948 16.0394ZM19.2164 12.8036C19.1964 13.6962 19.2403 14.5928 19.3439 15.4815H19.2961C19.1845 15.2623 18.9374 14.8558 18.5589 14.2621L9.47324 0H6.71568V18.2072H8.83565V5.04493C8.85956 4.21208 8.8237 3.37923 8.73603 2.54637H8.81573C8.96716 2.94487 9.16242 3.32742 9.39354 3.68607L18.7262 18.2072H21.3363V0H19.2164V12.8036ZM35.7099 16.2067H28.2183V9.89858H34.7735V7.97784H28.2183V1.92871H35.2517V0H26.0465V18.2072H35.698L35.7099 16.2067ZM37.3318 0V1.92871H42.5521V18.2072H44.672V1.92871H49.952V0H37.3318ZM16.5544 22.7341C16.0249 22.9453 15.5467 23.2673 15.1517 23.6785C14.7453 24.1128 14.4265 24.6229 14.2193 25.1848C14.0121 25.7467 13.9204 26.3404 13.9443 26.9342C13.9045 28.034 14.287 29.11 15.0202 29.9309C15.3869 30.3174 15.8332 30.6163 16.3273 30.8155C16.8214 31.0148 17.3514 31.1024 17.8814 31.0785C18.6784 31.1064 19.4714 30.939 20.1927 30.5884L20.2006 29.6599C19.5391 30.0464 18.786 30.2377 18.0209 30.2178C17.6104 30.2337 17.2 30.162 16.8214 30.0066C16.4429 29.8512 16.1002 29.6121 15.8212 29.3092C15.2379 28.6316 14.9382 27.7553 14.9844 26.8625C14.9366 25.918 15.2593 24.9935 15.881 24.2842C16.1759 23.9574 16.5385 23.7024 16.941 23.5271C17.345 23.3552 17.7813 23.2723 18.2201 23.284C18.9175 23.272 19.6029 23.4434 20.2126 23.7821V22.7819C19.5803 22.5269 18.9015 22.4074 18.2201 22.4312C17.6503 22.4232 17.0805 22.5229 16.5544 22.7341ZM26.4888 25.5873C26.2225 25.3072 25.8987 25.088 25.5396 24.9449C25.1805 24.8019 24.7947 24.7382 24.4087 24.7584C23.9983 24.7385 23.5918 24.8062 23.2093 24.9537C22.8267 25.1011 22.48 25.3243 22.1851 25.6072C21.8982 25.926 21.679 26.2966 21.5356 26.7031C21.3921 27.1095 21.3324 27.5359 21.3603 27.9663C21.3204 28.7832 21.6033 29.5842 22.1453 30.1939C22.4163 30.4848 22.743 30.7159 23.1096 30.8713C23.4762 31.0227 23.8708 31.0984 24.2653 31.0825C24.6677 31.0945 25.0702 31.0187 25.4448 30.8633C25.8194 30.7079 26.1541 30.4728 26.4291 30.1739C26.9879 29.5439 27.277 28.7197 27.234 27.8786C27.2818 27.0418 27.0149 26.2249 26.4888 25.5873ZM25.7596 29.6798C25.5843 29.8822 25.3649 30.0417 25.1182 30.146C24.8716 30.2503 24.6043 30.2967 24.337 30.2815C24.062 30.2935 23.7911 30.2417 23.54 30.1381C23.289 30.0305 23.0658 29.8711 22.8825 29.6639C22.5006 29.1911 22.3088 28.5929 22.3445 27.9862C22.3087 27.3606 22.4999 26.7429 22.8825 26.2488C23.0618 26.0416 23.285 25.8782 23.536 25.7666C23.7871 25.659 24.062 25.6072 24.333 25.6192C24.604 25.6032 24.871 25.655 25.118 25.7626C25.3651 25.8702 25.5843 26.0336 25.7596 26.2408C26.1218 26.7418 26.2979 27.3534 26.2577 27.9703C26.2976 28.576 26.1222 29.1857 25.7596 29.6798ZM30.3781 25.1967C30.0793 25.4637 29.8601 25.8104 29.7525 26.197V24.9457H28.7563V30.939H29.7525V27.8826C29.7206 27.3287 29.8641 26.7748 30.159 26.3046C30.2665 26.1332 30.41 25.9897 30.5853 25.8901C30.7607 25.7905 30.9559 25.7307 31.1552 25.7267C31.4102 25.7068 31.6653 25.7746 31.8804 25.918V24.9298C31.6971 24.87 31.5059 24.8421 31.3146 24.8501C30.9719 24.8461 30.6411 24.9696 30.3781 25.1967ZM37.7104 27.6714C37.7582 26.9103 37.5311 26.1611 37.0728 25.5554C36.8456 25.3004 36.5667 25.0971 36.2519 24.9656C35.9371 24.8341 35.5984 24.7743 35.2597 24.7943C34.8851 24.7823 34.5105 24.858 34.1638 25.0095C33.8211 25.1609 33.5143 25.388 33.2672 25.6749C32.7261 26.3062 32.4455 27.1197 32.4822 27.9503C32.4304 28.7792 32.6894 29.6001 33.2074 30.2457C33.4585 30.5206 33.7693 30.7358 34.112 30.8793C34.4547 31.0227 34.8293 31.0825 35.1999 31.0666C35.9371 31.1024 36.6663 30.9032 37.28 30.4967V29.5961C36.7557 30.0221 36.1026 30.2581 35.427 30.2656C35.168 30.2815 34.905 30.2417 34.6619 30.146C34.4188 30.0504 34.1957 29.9109 34.0124 29.7236C33.6563 29.2927 33.4757 28.7436 33.5063 28.1855H37.7183L37.7104 27.6714ZM33.4983 27.3924C33.5501 26.9182 33.7573 26.4719 34.0841 26.1252C34.2305 25.9679 34.4083 25.843 34.606 25.7585C34.8037 25.6741 35.0168 25.6321 35.2318 25.6351C35.439 25.6231 35.6422 25.659 35.8335 25.7387C36.0248 25.8184 36.1921 25.9379 36.3276 26.0934C36.6066 26.464 36.746 26.9182 36.7261 27.3805L33.4983 27.3924Z" fill="currentColor"/>
</g>
<defs>
<clipPath id="clip0_26_581">
<rect width="50" height="31.5" fill="white"/>
</clipPath>
</defs>
</svg>
