<svg width="24" height="25" viewBox="0 0 24 24" fill="none" xmlns="http://www.w3.org/2000/svg">
<path d="M10.1321 7.41064C9.88088 7.37673 9.65335 7.40809 9.53822 7.49263C9.47354 7.54017 9.45347 7.59526 9.44804 7.63316C9.4336 7.73361 9.50616 7.84469 9.55079 7.90195C9.67697 8.06412 9.86129 8.17556 10.0437 8.2001C10.0702 8.20374 10.0965 8.20538 10.1227 8.20538C10.4269 8.20538 10.7035 7.97567 10.7279 7.80614C10.7584 7.5938 10.4405 7.45227 10.1321 7.41073V7.41064ZM18.4556 7.41736C18.4316 7.25093 18.1262 7.20348 17.8363 7.24256C17.5468 7.28165 17.2661 7.40837 17.2896 7.57517C17.3083 7.70488 17.5499 7.92631 17.8358 7.92631C17.86 7.92631 17.8844 7.92477 17.909 7.92141C18.0998 7.89577 18.2399 7.77824 18.3065 7.71052C18.4077 7.60725 18.4664 7.49218 18.4556 7.41736" fill="currentColor"/>
<path d="M23.2317 14.5461C23.1254 14.2344 22.7832 14.1342 22.2147 14.248C20.5267 14.5858 19.9222 14.3518 19.7237 14.2101C21.0357 12.2721 22.1151 9.92947 22.6974 7.7438C22.9732 6.70846 23.1256 5.74693 23.138 4.96319C23.1518 4.10302 23.0007 3.4709 22.689 3.08476C21.4326 1.52812 19.5885 0.693119 17.3563 0.670212C15.8217 0.653487 14.5251 1.03426 14.2738 1.14134C13.7444 1.01372 13.1674 0.935365 12.5392 0.925366C11.3872 0.907277 10.3914 1.1747 9.5669 1.71982C9.20877 1.59057 8.28326 1.28251 7.15141 1.10571C5.19464 0.800289 3.63968 1.03172 2.53005 1.79391C1.206 2.70344 0.594743 4.32926 0.713151 6.6261C0.752995 7.39884 1.20712 9.77603 1.92376 12.0526C2.86708 15.049 3.89253 16.7453 4.97142 17.0942C5.0977 17.135 5.24329 17.1636 5.40389 17.1636C5.79746 17.1636 6.27999 16.9916 6.78203 16.4064C7.39437 15.6942 8.0278 14.9992 8.68152 14.3224C9.10565 14.5431 9.57159 14.6664 10.0481 14.6788C10.0491 14.6909 10.0503 14.7029 10.0514 14.7149C9.96938 14.8098 9.88905 14.906 9.81047 15.0035C9.48028 15.41 9.41156 15.4946 8.3487 15.7067C8.04636 15.7673 7.24338 15.9277 7.23157 16.4735C7.21882 17.0698 8.1808 17.3202 8.29039 17.3467C8.67233 17.4395 9.0403 17.4852 9.39121 17.4852C10.2446 17.4852 10.9957 17.2132 11.5959 16.687C11.5774 18.8128 11.6688 20.9074 11.9321 21.5456C12.1477 22.0681 12.6744 23.345 14.3381 23.3449C14.5822 23.3449 14.8509 23.3174 15.1465 23.2559C16.8829 22.895 17.6369 22.1509 17.9286 20.5105C18.0847 19.6338 18.3525 17.5403 18.4785 16.4173C18.7444 16.4977 19.0867 16.5346 19.4567 16.5345C20.2285 16.5345 21.119 16.3755 21.6775 16.1241C22.3049 15.8416 23.437 15.1484 23.2317 14.5461V14.5461ZM19.0967 6.95788C19.091 7.28939 19.0439 7.59036 18.994 7.90451C18.9403 8.24238 18.8848 8.5917 18.8709 9.01575C18.8571 9.42843 18.9102 9.85748 18.9616 10.2724C19.0655 11.1105 19.1721 11.9733 18.7595 12.8247C18.6909 12.7069 18.6299 12.5852 18.5767 12.4603C18.5254 12.3397 18.414 12.1461 18.2598 11.8782C17.6599 10.835 16.255 8.39218 16.9742 7.39538C17.1884 7.09869 17.7321 6.79363 19.0967 6.95788V6.95788ZM17.4426 1.3415C19.4426 1.38432 21.0248 2.10978 22.1449 3.49763C23.0041 4.56215 22.058 9.40589 19.3193 13.5846C19.2917 13.5507 19.264 13.5168 19.2362 13.4831L19.2015 13.4411C19.9092 12.3078 19.7709 11.1866 19.6477 10.1925C19.597 9.78457 19.5492 9.39925 19.5614 9.03729C19.574 8.6537 19.6263 8.32464 19.6769 8.0065C19.7391 7.61445 19.8024 7.20877 19.7849 6.73055C19.798 6.68037 19.8032 6.6211 19.7964 6.55075C19.7518 6.09216 19.2118 4.71968 18.1112 3.47745C17.5091 2.79798 16.6311 2.03761 15.4323 1.52475C15.948 1.42113 16.6531 1.3245 17.4426 1.3415V1.3415ZM6.25074 15.9781C5.69761 16.6229 5.31567 16.4993 5.19004 16.4587C4.3716 16.1941 3.4219 14.5168 2.58461 11.8571C1.8601 9.55569 1.43672 7.24149 1.40316 6.59256C1.29741 4.54024 1.81051 3.10994 2.9283 2.3413C4.74744 1.09053 7.73829 1.83917 8.94008 2.21886C8.92283 2.2354 8.90483 2.25086 8.88777 2.26767C6.91563 4.19873 6.96241 7.49801 6.96728 7.69971C6.96709 7.77752 6.97384 7.88769 6.98303 8.03922C7.01697 8.59416 7.08016 9.62695 6.91141 10.7966C6.75465 11.8834 7.10022 12.9472 7.85932 13.7152C7.93723 13.7939 8.01911 13.8688 8.10467 13.9396C7.76679 14.2904 7.03244 15.0664 6.25074 15.9781V15.9781ZM8.35817 13.2517C7.74635 12.6327 7.46847 11.7717 7.59569 10.8893C7.77382 9.65377 7.7081 8.57771 7.67276 7.99959C7.66779 7.91869 7.66338 7.84779 7.66085 7.79188C7.94895 7.54418 9.28406 6.85062 10.2362 7.06215C10.6706 7.15859 10.9354 7.44547 11.0455 7.93887C11.6151 10.4934 11.1208 11.5581 10.7237 12.4137C10.6419 12.59 10.5645 12.7566 10.4985 12.929L10.4473 13.0622C10.3178 13.3991 10.1972 13.7123 10.1225 14.0097C9.47203 14.0079 8.8393 13.7385 8.35817 13.2516V13.2517ZM8.45802 16.6968C8.26808 16.6508 8.09726 16.5709 7.99704 16.5047C8.08076 16.4665 8.22973 16.4145 8.48811 16.3629C9.73847 16.1133 9.9316 15.9372 10.3533 15.418C10.4499 15.299 10.5595 15.1641 10.7113 14.9997L10.7115 14.9995C10.9375 14.7541 11.041 14.7958 11.2285 14.8712C11.3804 14.9321 11.5285 15.1168 11.5885 15.3201C11.6169 15.416 11.6487 15.5982 11.5444 15.74C10.6635 16.9359 9.37987 16.9205 8.45802 16.6968V16.6968ZM15.0017 22.6009C13.4721 22.9187 12.9305 22.1619 12.5736 21.2969C12.3432 20.7384 12.23 18.2199 12.3103 15.4387C12.3114 15.4017 12.3059 15.366 12.2954 15.3323C12.286 15.2659 12.2718 15.2002 12.2527 15.1358C12.1332 14.7311 11.8421 14.3926 11.4929 14.2523C11.3542 14.1965 11.0995 14.0943 10.7935 14.1702C10.8588 13.9095 10.972 13.6151 11.0947 13.2963L11.1461 13.1622C11.2041 13.011 11.2768 12.8544 11.3537 12.6886C11.7693 11.7934 12.3385 10.5673 11.7207 7.79734C11.4894 6.75982 10.7167 6.25314 9.54534 6.37086C8.84315 6.4413 8.20067 6.716 7.88023 6.87353C7.81132 6.90734 7.74832 6.94007 7.68945 6.97188C7.77888 5.92654 8.11676 3.97294 9.38071 2.73689C10.1766 1.9588 11.2364 1.57448 12.5277 1.5952C15.0722 1.63556 16.7038 2.9016 17.6246 3.95667C18.4181 4.86575 18.8478 5.78156 19.0193 6.27551C17.7297 6.14834 16.8527 6.39513 16.4081 7.01142C15.4409 8.352 16.9372 10.9539 17.6564 12.2044C17.7883 12.4336 17.9021 12.6316 17.9379 12.7158C18.1721 13.2661 18.4753 13.6335 18.6967 13.9017C18.7645 13.9838 18.8304 14.0636 18.8804 14.1332C18.4898 14.2424 17.7883 14.4946 17.8522 15.7555C17.8007 16.3881 17.434 19.3502 17.2477 20.3967C17.0018 21.7793 16.4771 22.2942 15.0017 22.601V22.6009ZM21.3866 15.5166C20.9872 15.6963 20.3188 15.8311 19.684 15.8601C18.9827 15.8919 18.6257 15.7839 18.5417 15.7175C18.5023 14.9317 18.8039 14.8497 19.1231 14.7628C19.1733 14.7491 19.2222 14.7358 19.2695 14.7198C19.2988 14.7429 19.331 14.7659 19.3662 14.7885C19.9299 15.1492 20.9352 15.1881 22.3545 14.904L22.37 14.901C22.1786 15.0745 21.851 15.3074 21.3866 15.5166Z" fill="currentColor"/>
</svg>
