<svg width="24" height="25" viewBox="0 0 14 13" fill="none" xmlns="http://www.w3.org/2000/svg">
<g clip-path="url(#clip0_16_99)">
<path d="M12.3144 0.678086C12.1316 1.11474 11.8996 1.5294 11.6202 1.9102C10.3978 0.688241 8.73848 0.00109863 7.00977 0.00109863C3.43384 0.00109863 0.49115 2.94599 0.49115 6.52556C0.49115 8.31112 1.22259 10.0205 2.51616 11.2526L2.75658 11.4659C3.93163 12.456 5.41991 13.0009 6.95559 13.0009C10.3554 13.0009 13.2135 10.337 13.4556 6.94191C13.6334 5.27991 13.1457 3.17786 12.3144 0.678086ZM3.44231 11.2899C3.33733 11.4202 3.17648 11.4963 3.00886 11.4963C2.7024 11.4963 2.45182 11.2442 2.45182 10.9378C2.45182 10.6315 2.7041 10.3793 3.00886 10.3793C3.13585 10.3793 3.26114 10.4233 3.35934 10.5046C3.59808 10.6975 3.63533 11.0512 3.44231 11.2899ZM12.2873 9.33675C10.6788 11.4811 7.24343 10.7584 5.04064 10.8617C5.04064 10.8617 4.64952 10.8854 4.25671 10.9497C4.25671 10.9497 4.40402 10.8871 4.59534 10.8143C6.14119 10.2761 6.87263 10.1711 7.81233 9.68879C9.58167 8.7884 11.3307 6.81836 11.6947 4.76878C11.0208 6.74051 8.97891 8.43467 7.11814 9.1235C5.84319 9.59401 3.54051 10.051 3.54051 10.051L3.44739 10.0019C1.87953 9.23859 1.83212 5.84181 4.68169 4.74509C5.92955 4.26443 7.12322 4.52845 8.47096 4.20688C9.91014 3.865 11.5745 2.78521 12.2518 1.37708C13.0103 3.62975 13.9229 7.15686 12.2873 9.33675Z" fill="currentColor"/>
</g>
<defs>
<clipPath id="clip0_16_99">
<rect width="13" height="13" fill="white" transform="translate(0.49115)"/>
</clipPath>
</defs>
</svg>
