<svg width="24" height="25" viewBox="0 0 50 51" fill="none" xmlns="http://www.w3.org/2000/svg">
<path opacity="0.8" d="M43.8871 8.50235L41.5414 25.0121L25.0316 22.6665L27.3773 6.15668L43.8871 8.50235Z" fill="currentColor"/>
<path opacity="0.8" d="M6.16125 41.5171L8.50692 25.0073L25.0167 27.353L22.671 43.8628L6.16125 41.5171Z" fill="currentColor"/>
<path opacity="0.8" d="M8.5068 6.17859L25.0166 8.52426L22.6709 25.034L6.16113 22.6884L8.5068 6.17859Z" fill="currentColor"/>
<path opacity="0.8" d="M41.5221 43.8647L25.0123 41.519L27.358 25.0092L43.8678 27.3549L41.5221 43.8647Z" fill="currentColor"/>
<path opacity="0.8" d="M23.3685 50.0082L13.3529 36.6754L26.6857 26.6599L36.7013 39.9927L23.3685 50.0082Z" fill="currentColor" fill-opacity="0.7"/>
<path opacity="0.8" d="M50 26.6346L36.6672 36.6501L26.6516 23.3173L39.9844 13.3018L50 26.6346Z" fill="currentColor" fill-opacity="0.7"/>
<path opacity="0.8" d="M26.6614 0L36.677 13.3328L23.3442 23.3484L13.3286 10.0155L26.6614 0Z" fill="currentColor" fill-opacity="0.7"/>
<path opacity="0.8" d="M0 23.3619L13.3328 13.3463L23.3484 26.6791L10.0155 36.6947L0 23.3619Z" fill="currentColor" fill-opacity="0.7"/>
<path d="M24.9999 18.6644L31.3396 25.0041L24.9999 31.3437L18.6603 25.0041L24.9999 18.6644Z" fill="currentColor"/>
</svg>
