<svg width="1600" height="1600" viewBox="0 0 1600 1600" fill="none" xmlns="http://www.w3.org/2000/svg">
<path d="M1500 778C1500 1164.6 1186.6 1478 800 1478C413.401 1478 100 1164.6 100 778C100 391.401 413.401 78 800 78C1186.6 78 1500 391.401 1500 778Z" fill="#FFD875" fill-opacity="0.25"/>
<path d="M1423 778C1423 1121.64 1144.42 1400.22 800.778 1400.22C457.134 1400.22 178.556 1121.64 178.556 778C178.556 434.356 457.134 155.778 800.778 155.778C1144.42 155.778 1423 434.356 1423 778Z" fill="#FFC42C" fill-opacity="0.3"/>
<circle cx="800" cy="789.667" r="544.444" fill="#FFCA42" fill-opacity="0.4"/>
<circle cx="800.777" cy="778" r="466.667" fill="#FFC225" fill-opacity="0.45"/>
<circle cx="800.778" cy="778" r="388.889" fill="#FFB72B" fill-opacity="0.55"/>
<circle cx="800.778" cy="778" r="311.111" fill="#FFD858" fill-opacity="0.6"/>
<circle cx="800" cy="778" r="233.333" fill="#FFE27D" fill-opacity="0.6"/>
<path d="M913.944 602.126H830.385C816.711 602.126 817.593 625.503 830.385 625.503H950.856C964.089 625.503 962.767 647.116 948.653 647.116H885.52C871.406 647.116 872.288 669.171 885.52 669.171L967.384 669.612C981.058 669.612 981.058 692.989 967.384 692.989L885.52 693.43C874.934 693.871 875.816 714.161 885.52 714.602L1064.16 714.602C1078.71 714.602 1078.27 692.989 1064.16 692.989L1023.58 692.088C1007.26 691.647 1007.26 669.171 1023.58 669.171L1167.37 669.612C1181.49 669.612 1181.05 647.999 1168.25 647.999H1055.53C1041.42 647.999 1040.54 625.503 1055.53 625.503H1110.03C1125.47 625.503 1125.47 602.126 1110.03 602.126H990.523C976.408 602.126 975.967 579.631 990.523 579.631H1076.47C1090.14 579.631 1090.14 557.577 1076.47 557.577H879.563C864.125 557.577 865.448 579.631 879.563 579.631H913.944C925.854 579.631 925.854 601.685 913.944 602.126Z" fill="#FAF1E7"/>
<path d="M1005.11 517.445C1018.34 517.445 1018.34 539.499 1005.11 539.499H878.239C863.684 539.499 863.684 517.445 878.239 517.445H1005.11Z" fill="#FAF1E7"/>
<path d="M855.895 528.472C855.895 528.472 855.678 539.499 844.426 539.499C833.175 539.499 832.958 528.472 832.958 528.472C832.958 528.472 833.175 517.445 844.426 517.445C855.678 517.445 855.895 528.472 855.895 528.472Z" fill="#FAF1E7"/>
<path d="M1155.63 693.871C1168.86 693.871 1168.86 715.484 1155.63 715.484H1100.71C1086.15 715.484 1086.15 693.43 1100.71 693.43L1155.63 693.871Z" fill="#FAF1E7"/>
<path d="M1083.43 739.459C1083.43 739.459 1083.21 750.486 1071.96 750.486C1060.71 750.486 1060.49 739.459 1060.49 739.459C1060.49 739.459 1060.71 728.873 1071.96 728.873C1083.21 728.873 1083.43 739.459 1083.43 739.459Z" fill="#FAF1E7"/>
<path d="M801.279 602.126C814.511 602.126 814.511 624.18 801.279 624.18H746.361C731.805 624.18 731.805 602.126 746.361 602.126H801.279Z" fill="#FAF1E7"/>
<path d="M1039.52 728.873C1052.75 728.873 1052.75 750.486 1039.52 750.486H948.653C934.097 750.486 934.097 728.432 948.653 728.432L1039.52 728.873Z" fill="#FAF1E7"/>
<path d="M525.279 780.739H425.504C412.314 780.739 413.165 803.29 425.504 803.29H574.851C587.615 803.29 588.466 824.139 574.851 824.139H506.557C492.941 824.139 493.792 845.413 506.557 845.413L570.596 845.839C583.786 845.839 583.786 867.964 570.596 867.964L478.69 868.815C468.478 869.24 469.329 888.813 478.69 889.238L651.013 889.238C665.055 889.238 664.629 868.389 651.013 868.389H639.951C624.208 867.964 624.208 845.839 639.951 845.839H750.578C764.194 845.839 763.768 824.99 751.429 824.99H683.776C670.16 824.99 669.735 803.29 684.202 803.29H695.264C710.156 803.29 710.156 780.739 695.264 780.739H625.694C612.078 780.739 611.653 759.039 625.694 759.039H679.731C692.921 759.039 692.921 737.764 679.731 737.764H472.943C458.051 737.764 459.328 759.039 472.943 759.039H525.279C536.767 759.039 536.767 780.313 525.279 780.739Z" fill="#FAF1E7"/>
<path d="M520.814 698.314C533.578 698.314 533.578 719.163 520.814 719.163H433.163C419.122 719.163 419.122 697.889 433.163 697.889L520.814 698.314Z" fill="#FAF1E7"/>
<path d="M409.125 708.526C409.125 708.526 408.917 719.163 398.063 719.163C387.209 719.163 387 708.526 387 708.526C387 708.526 387.209 697.889 398.063 697.889C408.917 697.889 409.125 708.526 409.125 708.526Z" fill="#FAF1E7"/>
<path d="M737.178 868.815C749.942 868.815 749.942 889.238 737.178 889.238H684.202C670.161 889.238 670.161 867.964 684.202 867.964L737.178 868.815Z" fill="#FAF1E7"/>
<path d="M461.671 835.201C461.671 835.201 461.462 845.839 450.608 845.839C439.754 845.839 439.545 835.201 439.545 835.201C439.545 835.201 439.754 824.99 450.608 824.99C461.462 824.99 461.671 835.201 461.671 835.201Z" fill="#FAF1E7"/>
<circle cx="800.778" cy="789.667" r="155.556" fill="#FFA827"/>
<path d="M930.351 918.001H762.995C749.777 918.001 750.63 940.6 762.995 940.6H868.74C881.532 940.6 882.384 961.493 868.74 961.493H844.22C830.575 961.493 831.428 982.813 844.22 982.813H883.874C897.092 982.813 897.092 1005.41 883.874 1005.41L816.294 1006.26C806.06 1006.69 806.913 1026.3 816.294 1026.73H1013.71C1027.78 1026.73 1027.36 1005.84 1013.71 1005.84H977.896C962.119 1005.41 962.119 983.239 977.896 983.239H1088.76C1102.4 983.239 1101.98 962.346 1089.61 962.346H1000.76C987.12 962.346 986.267 940.6 1000.76 940.6H1055.5C1070.42 940.6 1070.42 918.001 1055.5 918.001H1018.39C1004.75 918.001 1004.32 895.829 1018.39 895.829L1120.74 896.255C1133.95 896.255 1133.95 874.936 1120.74 874.936H910.953C896.029 874.936 897.308 896.255 910.953 896.255H930.351C941.863 896.255 941.863 917.575 930.351 918.001Z" fill="#8E765A"/>
<path d="M882.168 874.509C894.96 874.509 895.813 895.829 883.021 895.829H833.986C819.915 895.829 819.915 874.509 833.986 874.509H882.168Z" fill="#8E765A"/>
<path d="M1055.5 1016.07C1055.5 1016.07 1055.51 1026.73 1044.63 1026.73C1033.75 1026.73 1033.75 1016.07 1033.75 1016.07C1033.75 1016.07 1033.75 1005.84 1044.63 1005.84C1055.51 1005.84 1055.5 1016.07 1055.5 1016.07Z" fill="#8E765A"/>
<path d="M817.783 961.493C830.575 961.493 831.428 982.813 818.636 982.813H791.774C777.703 982.813 777.703 961.493 791.774 961.493H817.783Z" fill="#8E765A"/>
</svg>
