<svg width="1400" height="1400" viewBox="0 0 1400 1400" fill="none" xmlns="http://www.w3.org/2000/svg">
<g id="sun_and_moon">
<path id="light_7" d="M1400 700C1400 1086.6 1086.6 1400 700 1400C313.401 1400 0 1086.6 0 700C0 313.401 313.401 0 700 0C1086.6 0 1400 313.401 1400 700Z" fill="#132947" fill-opacity="0.25"/>
<path id="light_6" d="M1323 700C1323 1043.64 1044.42 1322.22 700.778 1322.22C357.134 1322.22 78.5556 1043.64 78.5556 700C78.5556 356.356 357.134 77.7778 700.778 77.7778C1044.42 77.7778 1323 356.356 1323 700Z" fill="#19304F" fill-opacity="0.3"/>
<circle id="light_5" cx="700" cy="711.667" r="544.444" fill="#1E334D" fill-opacity="0.4"/>
<circle id="light_4" cx="700.778" cy="700" r="466.667" fill="#2D4054" fill-opacity="0.45"/>
<circle id="light_3" cx="700.778" cy="700" r="388.889" fill="#3A4D64" fill-opacity="0.55"/>
<circle id="light_2" cx="700.778" cy="700" r="311.111" fill="#4A5D79" fill-opacity="0.6"/>
<circle id="light_1" cx="700" cy="700" r="233.333" fill="#65748A" fill-opacity="0.6"/>
<g id="cloud_grey">
<g id="CLOUD_grey2">
<path d="M813.945 524.126H730.385C716.711 524.126 717.593 547.503 730.385 547.503H850.857C864.089 547.503 862.768 569.117 848.653 569.117H785.52C771.406 569.117 772.288 591.171 785.52 591.171L867.384 591.612C881.058 591.612 881.058 614.989 867.384 614.989L785.52 615.43C774.934 615.871 775.816 636.161 785.52 636.602L964.159 636.602C978.715 636.602 978.274 614.989 964.159 614.989L923.579 614.088C907.259 613.647 907.259 591.171 923.579 591.171L1067.37 591.612C1081.49 591.612 1081.05 569.999 1068.25 569.999H955.532C941.418 569.999 940.536 547.503 955.532 547.503H1010.03C1025.47 547.503 1025.47 524.126 1010.03 524.126H890.523C876.409 524.126 875.967 501.631 890.523 501.631H976.468C990.141 501.631 990.141 479.577 976.468 479.577H779.563C764.125 479.577 765.448 501.631 779.563 501.631H813.945C825.854 501.631 825.854 523.685 813.945 524.126Z" fill="#DCCFC0"/>
<path d="M905.11 439.445C918.343 439.445 918.343 461.499 905.11 461.499H778.24C763.684 461.499 763.684 439.445 778.24 439.445H905.11Z" fill="#DCCFC0"/>
<path d="M755.895 450.472C755.895 450.472 755.678 461.499 744.427 461.499C733.175 461.499 732.958 450.472 732.958 450.472C732.958 450.472 733.175 439.445 744.427 439.445C755.678 439.445 755.895 450.472 755.895 450.472Z" fill="#DCCFC0"/>
<path d="M1055.63 615.871C1068.86 615.871 1068.86 637.484 1055.63 637.484H1000.71C986.153 637.484 986.153 615.43 1000.71 615.43L1055.63 615.871Z" fill="#DCCFC0"/>
<path d="M983.427 661.459C983.427 661.459 983.211 672.486 971.959 672.486C960.707 672.486 960.491 661.459 960.491 661.459C960.491 661.459 960.707 650.873 971.959 650.873C983.211 650.873 983.427 661.459 983.427 661.459Z" fill="#DCCFC0"/>
<path d="M701.279 524.126C714.511 524.126 714.511 546.18 701.279 546.18H646.361C631.806 546.18 631.806 524.126 646.361 524.126H701.279Z" fill="#DCCFC0"/>
<path d="M939.516 650.873C952.749 650.873 952.749 672.486 939.516 672.486H848.653C834.097 672.486 834.097 650.432 848.653 650.432L939.516 650.873Z" fill="#DCCFC0"/>
</g>
<g id="CLOUD_grey1">
<path d="M425.279 702.739H325.504C312.314 702.739 313.165 725.29 325.504 725.29H474.851C487.616 725.29 488.467 746.139 474.851 746.139H406.557C392.942 746.139 393.793 767.413 406.557 767.413L470.596 767.838C483.786 767.838 483.786 789.964 470.596 789.964L378.69 790.815C368.479 791.24 369.33 810.813 378.69 811.238L551.014 811.238C565.055 811.238 564.629 790.389 551.014 790.389H539.951C524.208 789.964 524.208 767.838 539.951 767.838H650.578C664.194 767.838 663.768 746.99 651.429 746.99H583.776C570.161 746.99 569.735 725.29 584.202 725.29H595.264C610.157 725.29 610.157 702.739 595.264 702.739H525.694C512.078 702.739 511.653 681.039 525.694 681.039H579.731C592.922 681.039 592.922 659.764 579.731 659.764H372.944C358.051 659.764 359.328 681.039 372.944 681.039H425.279C436.767 681.039 436.767 702.313 425.279 702.739Z" fill="#DCCFC0"/>
<path d="M569.52 826.151C582.284 826.151 582.284 847 569.52 847H525.694H481.869C467.828 847 467.828 825.725 481.869 825.725L569.52 826.151Z" fill="#DCCFC0"/>
<path d="M539.951 630.526C539.951 630.526 539.742 641.163 528.888 641.163C518.034 641.163 517.825 630.526 517.825 630.526C517.825 630.526 518.034 619.889 528.888 619.889C539.742 619.889 539.951 630.526 539.951 630.526Z" fill="#DCCFC0"/>
<path d="M637.178 790.815C649.942 790.815 649.942 811.238 637.178 811.238H584.202C570.161 811.238 570.161 789.964 584.202 789.964L637.178 790.815Z" fill="#DCCFC0"/>
<path d="M361.671 757.201C361.671 757.201 361.462 767.838 350.608 767.838C339.754 767.838 339.545 757.201 339.545 757.201C339.545 757.201 339.754 746.99 350.608 746.99C361.462 746.99 361.671 757.201 361.671 757.201Z" fill="#DCCFC0"/>
</g>
</g>
<g id="Moon">
<circle id="moon_circle" cx="700.778" cy="711.667" r="155.556" fill="#F8EFE4"/>
<circle id="moon_circle_2" cx="676.846" cy="734.402" r="23.9316" fill="#EBE7E2"/>
<circle id="moon_circle_3" cx="817.195" cy="697.966" r="11.9658" fill="#EBE7E2"/>
<circle id="moon_circle_4" cx="700.18" cy="811.581" r="38.8889" fill="#EBE7E2"/>
<circle id="moon_circle_5" cx="615.821" cy="772.692" r="29.9145" fill="#EBE7E2"/>
</g>
<g id="cloud_dark">
<path d="M830.35 840.001H662.995C649.776 840.001 650.629 862.6 662.995 862.6H768.74C781.531 862.6 782.384 883.493 768.74 883.493H744.219C730.575 883.493 731.428 904.813 744.219 904.813H783.874C797.092 904.813 797.092 927.411 783.874 927.411L716.293 928.264C706.06 928.69 706.913 948.304 716.293 948.731H913.712C927.783 948.731 927.357 927.838 913.712 927.838H877.896C862.119 927.411 862.119 905.239 877.896 905.239H988.757C1002.4 905.239 1001.98 884.346 989.61 884.346H900.764C887.119 884.346 886.267 862.6 900.764 862.6H955.499C970.422 862.6 970.422 840.001 955.499 840.001H918.393C904.749 840.001 904.323 817.829 918.393 817.829L1020.74 818.255C1033.95 818.255 1033.95 796.936 1020.74 796.936H810.952C796.029 796.936 797.308 818.255 810.952 818.255H830.35C841.863 818.255 841.863 839.575 830.35 840.001Z" fill="#031B40"/>
<path d="M782.168 796.509C794.96 796.509 795.813 817.829 783.021 817.829H733.986C719.915 817.829 719.915 796.509 733.986 796.509H782.168Z" fill="#031B40"/>
<path d="M955.499 938.071C955.499 938.071 955.507 948.731 944.63 948.731C933.753 948.731 933.753 938.071 933.753 938.071C933.753 938.071 933.753 927.838 944.63 927.838C955.507 927.838 955.499 938.071 955.499 938.071Z" fill="#031B40"/>
<path d="M717.783 883.493C730.575 883.493 731.428 904.813 718.636 904.813H691.773C677.702 904.813 677.702 883.493 691.773 883.493H717.783Z" fill="#031B40"/>
</g>
</g>
</svg>
