<svg width="1600" height="1600" viewBox="0 0 1600 1600" fill="none" xmlns="http://www.w3.org/2000/svg">
<path d="M1500 800C1500 1186.6 1186.6 1500 800 1500C413.401 1500 100 1186.6 100 800C100 413.401 413.401 100 800 100C1186.6 100 1500 413.401 1500 800Z" fill="#FFF492" fill-opacity="0.25"/>
<path d="M1423 800C1423 1143.64 1144.42 1422.22 800.778 1422.22C457.134 1422.22 178.555 1143.64 178.555 800C178.555 456.356 457.134 177.778 800.778 177.778C1144.42 177.778 1423 456.356 1423 800Z" fill="#FEEB86" fill-opacity="0.3"/>
<circle cx="800" cy="811.667" r="544.444" fill="#FFD567" fill-opacity="0.4"/>
<circle cx="800.778" cy="800" r="466.667" fill="#FFC941" fill-opacity="0.45"/>
<circle cx="800.778" cy="800" r="388.889" fill="#FECD4F" fill-opacity="0.55"/>
<circle cx="800.778" cy="800" r="311.111" fill="#FFC737" fill-opacity="0.6"/>
<circle cx="800" cy="800" r="233.333" fill="#FFC32B" fill-opacity="0.6"/>
<path d="M913.944 624.126H830.385C816.711 624.126 817.593 647.503 830.385 647.503H950.856C964.089 647.503 962.767 669.116 948.653 669.116H885.52C871.406 669.116 872.288 691.171 885.52 691.171L967.384 691.612C981.058 691.612 981.058 714.989 967.384 714.989L885.52 715.43C874.934 715.871 875.816 736.161 885.52 736.602L1064.16 736.602C1078.71 736.602 1078.27 714.989 1064.16 714.989L1023.58 714.088C1007.26 713.647 1007.26 691.171 1023.58 691.171L1167.37 691.612C1181.49 691.612 1181.05 669.999 1168.25 669.999H1055.53C1041.42 669.999 1040.54 647.503 1055.53 647.503H1110.03C1125.47 647.503 1125.47 624.126 1110.03 624.126H990.523C976.408 624.126 975.967 601.631 990.523 601.631H1076.47C1090.14 601.631 1090.14 579.577 1076.47 579.577H879.563C864.125 579.577 865.448 601.631 879.563 601.631H913.944C925.854 601.631 925.854 623.685 913.944 624.126Z" fill="#FAF1E7"/>
<path d="M1005.11 539.445C1018.34 539.445 1018.34 561.499 1005.11 561.499H878.239C863.684 561.499 863.684 539.445 878.239 539.445H1005.11Z" fill="#FAF1E7"/>
<path d="M855.895 550.472C855.895 550.472 855.678 561.499 844.426 561.499C833.175 561.499 832.958 550.472 832.958 550.472C832.958 550.472 833.175 539.445 844.426 539.445C855.678 539.445 855.895 550.472 855.895 550.472Z" fill="#FAF1E7"/>
<path d="M1155.63 715.871C1168.86 715.871 1168.86 737.484 1155.63 737.484H1100.71C1086.15 737.484 1086.15 715.43 1100.71 715.43L1155.63 715.871Z" fill="#FAF1E7"/>
<path d="M1083.43 761.459C1083.43 761.459 1083.21 772.486 1071.96 772.486C1060.71 772.486 1060.49 761.459 1060.49 761.459C1060.49 761.459 1060.71 750.873 1071.96 750.873C1083.21 750.873 1083.43 761.459 1083.43 761.459Z" fill="#FAF1E7"/>
<path d="M801.279 624.126C814.511 624.126 814.511 646.18 801.279 646.18H746.361C731.805 646.18 731.805 624.126 746.361 624.126H801.279Z" fill="#FAF1E7"/>
<path d="M1039.52 750.873C1052.75 750.873 1052.75 772.486 1039.52 772.486H948.653C934.097 772.486 934.097 750.432 948.653 750.432L1039.52 750.873Z" fill="#FAF1E7"/>
<path d="M525.279 802.739H425.504C412.314 802.739 413.165 825.29 425.504 825.29H574.851C587.615 825.29 588.466 846.139 574.851 846.139H506.557C492.941 846.139 493.792 867.413 506.557 867.413L570.596 867.839C583.786 867.839 583.786 889.964 570.596 889.964L478.69 890.815C468.478 891.24 469.329 910.813 478.69 911.238L651.013 911.238C665.055 911.238 664.629 890.389 651.013 890.389H639.951C624.208 889.964 624.208 867.839 639.951 867.839H750.578C764.194 867.839 763.768 846.99 751.429 846.99H683.776C670.16 846.99 669.735 825.29 684.202 825.29H695.264C710.156 825.29 710.156 802.739 695.264 802.739H625.694C612.078 802.739 611.653 781.039 625.694 781.039H679.731C692.921 781.039 692.921 759.764 679.731 759.764H472.943C458.051 759.764 459.328 781.039 472.943 781.039H525.279C536.767 781.039 536.767 802.313 525.279 802.739Z" fill="#FAF1E7"/>
<path d="M520.814 720.314C533.578 720.314 533.578 741.163 520.814 741.163H433.163C419.122 741.163 419.122 719.889 433.163 719.889L520.814 720.314Z" fill="#FAF1E7"/>
<path d="M409.125 730.526C409.125 730.526 408.917 741.163 398.063 741.163C387.209 741.163 387 730.526 387 730.526C387 730.526 387.209 719.889 398.063 719.889C408.917 719.889 409.125 730.526 409.125 730.526Z" fill="#FAF1E7"/>
<path d="M737.178 890.815C749.942 890.815 749.942 911.238 737.178 911.238H684.202C670.161 911.238 670.161 889.964 684.202 889.964L737.178 890.815Z" fill="#FAF1E7"/>
<path d="M461.671 857.201C461.671 857.201 461.462 867.839 450.608 867.839C439.754 867.839 439.545 857.201 439.545 857.201C439.545 857.201 439.754 846.99 450.608 846.99C461.462 846.99 461.671 857.201 461.671 857.201Z" fill="#FAF1E7"/>
<circle cx="800.778" cy="811.667" r="155.556" fill="#FFA827"/>
<path d="M930.35 940.001H762.995C749.777 940.001 750.629 962.6 762.995 962.6H868.74C881.531 962.6 882.384 983.493 868.74 983.493H844.219C830.575 983.493 831.428 1004.81 844.219 1004.81H883.874C897.092 1004.81 897.092 1027.41 883.874 1027.41L816.294 1028.26C806.06 1028.69 806.913 1048.3 816.294 1048.73H1013.71C1027.78 1048.73 1027.36 1027.84 1013.71 1027.84H977.896C962.119 1027.41 962.119 1005.24 977.896 1005.24H1088.76C1102.4 1005.24 1101.98 984.346 1089.61 984.346H1000.76C987.119 984.346 986.267 962.6 1000.76 962.6H1055.5C1070.42 962.6 1070.42 940.001 1055.5 940.001H1018.39C1004.75 940.001 1004.32 917.829 1018.39 917.829L1120.74 918.255C1133.95 918.255 1133.95 896.936 1120.74 896.936H910.952C896.029 896.936 897.308 918.255 910.952 918.255H930.35C941.863 918.255 941.863 939.575 930.35 940.001Z" fill="#8E765A"/>
<path d="M882.168 896.509C894.96 896.509 895.813 917.829 883.021 917.829H833.986C819.915 917.829 819.915 896.509 833.986 896.509H882.168Z" fill="#8E765A"/>
<path d="M1055.5 1038.07C1055.5 1038.07 1055.51 1048.73 1044.63 1048.73C1033.75 1048.73 1033.75 1038.07 1033.75 1038.07C1033.75 1038.07 1033.75 1027.84 1044.63 1027.84C1055.51 1027.84 1055.5 1038.07 1055.5 1038.07Z" fill="#8E765A"/>
<path d="M817.783 983.493C830.575 983.493 831.428 1004.81 818.636 1004.81H791.773C777.702 1004.81 777.702 983.493 791.773 983.493H817.783Z" fill="#8E765A"/>
</svg>
