<svg width="1400" height="1400" viewBox="0 0 1400 1400" fill="none" xmlns="http://www.w3.org/2000/svg">
<g id="sun_and_moon">
<path id="light_7" d="M1400 700C1400 1086.6 1086.6 1400 700 1400C313.401 1400 0 1086.6 0 700C0 313.401 313.401 0 700 0C1086.6 0 1400 313.401 1400 700Z" fill="#FFE5A0" fill-opacity="0.25"/>
<path id="light_6" d="M1323 700C1323 1043.64 1044.42 1322.22 700.778 1322.22C357.134 1322.22 78.5554 1043.64 78.5554 700C78.5554 356.356 357.134 77.7778 700.778 77.7778C1044.42 77.7778 1323 356.356 1323 700Z" fill="#FFCD4B" fill-opacity="0.3"/>
<circle id="light_5" cx="700" cy="711.667" r="544.444" fill="#FFCA42" fill-opacity="0.4"/>
<circle id="light_4" cx="700.778" cy="700" r="466.667" fill="#FFC225" fill-opacity="0.45"/>
<circle id="light_3" cx="700.778" cy="700" r="388.889" fill="#FFB72B" fill-opacity="0.55"/>
<circle id="light_2" cx="700.778" cy="700" r="311.111" fill="#FFD858" fill-opacity="0.6"/>
<circle id="light_1" cx="700" cy="700" r="233.333" fill="#FFE27D" fill-opacity="0.6"/>
<g id="cloud_grey">
<g id="CLOUD_grey2">
<path d="M813.944 524.126H730.385C716.711 524.126 717.593 547.503 730.385 547.503H850.856C864.089 547.503 862.767 569.116 848.653 569.116H785.52C771.406 569.116 772.288 591.171 785.52 591.171L867.384 591.612C881.058 591.612 881.058 614.989 867.384 614.989L785.52 615.43C774.934 615.871 775.816 636.161 785.52 636.602L964.159 636.602C978.715 636.602 978.274 614.989 964.159 614.989L923.579 614.088C907.258 613.647 907.258 591.171 923.579 591.171L1067.37 591.612C1081.49 591.612 1081.05 569.999 1068.25 569.999H955.532C941.418 569.999 940.535 547.503 955.532 547.503H1010.03C1025.47 547.503 1025.47 524.126 1010.03 524.126H890.523C876.408 524.126 875.967 501.631 890.523 501.631H976.467C990.141 501.631 990.141 479.577 976.467 479.577H779.563C764.125 479.577 765.448 501.631 779.563 501.631H813.944C825.854 501.631 825.854 523.685 813.944 524.126Z" fill="#FAF1E7"/>
<path d="M905.11 439.445C918.342 439.445 918.342 461.499 905.11 461.499H778.239C763.684 461.499 763.684 439.445 778.239 439.445H905.11Z" fill="#FAF1E7"/>
<path d="M755.895 450.472C755.895 450.472 755.678 461.499 744.426 461.499C733.175 461.499 732.958 450.472 732.958 450.472C732.958 450.472 733.175 439.445 744.426 439.445C755.678 439.445 755.895 450.472 755.895 450.472Z" fill="#FAF1E7"/>
<path d="M1055.63 615.871C1068.86 615.871 1068.86 637.484 1055.63 637.484H1000.71C986.152 637.484 986.152 615.43 1000.71 615.43L1055.63 615.871Z" fill="#FAF1E7"/>
<path d="M983.427 661.459C983.427 661.459 983.21 672.486 971.959 672.486C960.707 672.486 960.491 661.459 960.491 661.459C960.491 661.459 960.707 650.873 971.959 650.873C983.21 650.873 983.427 661.459 983.427 661.459Z" fill="#FAF1E7"/>
<path d="M701.279 524.126C714.511 524.126 714.511 546.18 701.279 546.18H646.361C631.805 546.18 631.805 524.126 646.361 524.126H701.279Z" fill="#FAF1E7"/>
<path d="M939.516 650.873C952.748 650.873 952.748 672.486 939.516 672.486H848.653C834.097 672.486 834.097 650.432 848.653 650.432L939.516 650.873Z" fill="#FAF1E7"/>
</g>
<g id="CLOUD_grey1">
<path d="M425.351 702.85H325.576C312.386 702.85 313.237 725.401 325.576 725.401H474.923C487.688 725.401 488.539 746.25 474.923 746.25H406.629C393.014 746.25 393.865 767.524 406.629 767.524L470.668 767.95C483.858 767.95 483.858 790.075 470.668 790.075L378.762 790.926C368.551 791.351 369.402 810.924 378.762 811.349L551.086 811.349C565.127 811.349 564.701 790.5 551.086 790.5H540.023C524.28 790.075 524.28 767.95 540.023 767.95H650.65C664.266 767.95 663.84 747.101 651.501 747.101H583.848C570.233 747.101 569.807 725.401 584.274 725.401H595.336C610.229 725.401 610.229 702.85 595.336 702.85H525.766C512.151 702.85 511.725 681.15 525.766 681.15H579.803C592.994 681.15 592.994 659.875 579.803 659.875H373.016C358.123 659.875 359.4 681.15 373.016 681.15H425.351C436.839 681.15 436.839 702.424 425.351 702.85Z" fill="#FAF1E7"/>
<path d="M569.592 826.262C582.356 826.262 582.356 847.111 569.592 847.111H525.766H481.941C467.9 847.111 467.9 825.837 481.941 825.837L569.592 826.262Z" fill="#FAF1E7"/>
<path d="M540.023 630.637C540.023 630.637 539.814 641.274 528.96 641.274C518.106 641.274 517.897 630.637 517.897 630.637C517.897 630.637 518.106 620 528.96 620C539.814 620 540.023 630.637 540.023 630.637Z" fill="#FAF1E7"/>
<path d="M637.25 790.926C650.014 790.926 650.014 811.349 637.25 811.349H584.274C570.233 811.349 570.233 790.075 584.274 790.075L637.25 790.926Z" fill="#FAF1E7"/>
<path d="M361.743 757.312C361.743 757.312 361.534 767.95 350.68 767.95C339.826 767.95 339.617 757.312 339.617 757.312C339.617 757.312 339.826 747.101 350.68 747.101C361.534 747.101 361.743 757.312 361.743 757.312Z" fill="#FAF1E7"/>
</g>
</g>
<g id="Moon">
<circle id="moon_circle" cx="700.778" cy="711.667" r="155.556" fill="#FFA827"/>
</g>
<g id="cloud_dark">
<path d="M830.351 840.001H662.995C649.777 840.001 650.63 862.6 662.995 862.6H768.74C781.532 862.6 782.384 883.493 768.74 883.493H744.22C730.575 883.493 731.428 904.813 744.22 904.813H783.874C797.092 904.813 797.092 927.411 783.874 927.411L716.294 928.264C706.06 928.69 706.913 948.304 716.294 948.731H913.713C927.784 948.731 927.357 927.838 913.713 927.838H877.896C862.119 927.411 862.119 905.239 877.896 905.239H988.758C1002.4 905.239 1001.98 884.346 989.61 884.346H900.764C887.12 884.346 886.267 862.6 900.764 862.6H955.499C970.423 862.6 970.423 840.001 955.499 840.001H918.394C904.749 840.001 904.323 817.829 918.394 817.829L1020.74 818.255C1033.95 818.255 1033.95 796.936 1020.74 796.936H810.953C796.029 796.936 797.308 818.255 810.953 818.255H830.351C841.863 818.255 841.863 839.575 830.351 840.001Z" fill="#8E765A"/>
<path d="M782.168 796.509C794.96 796.509 795.813 817.829 783.021 817.829H733.986C719.915 817.829 719.915 796.509 733.986 796.509H782.168Z" fill="#8E765A"/>
<path d="M955.499 938.071C955.499 938.071 955.507 948.731 944.63 948.731C933.753 948.731 933.753 938.071 933.753 938.071C933.753 938.071 933.753 927.838 944.63 927.838C955.507 927.838 955.499 938.071 955.499 938.071Z" fill="#8E765A"/>
<path d="M717.783 883.493C730.575 883.493 731.428 904.813 718.636 904.813H691.774C677.703 904.813 677.703 883.493 691.774 883.493H717.783Z" fill="#8E765A"/>
</g>
</g>
</svg>
