<svg id="exnlbEtpAMY1" xmlns="http://www.w3.org/2000/svg" xmlns:xlink="http://www.w3.org/1999/xlink" viewBox="-100 -100 1600 1600" shape-rendering="geometricPrecision" text-rendering="geometricPrecision"><g><path id="exnlbEtpAMY3" d="M1377,700c0,386.6-308.25,700-688.5,700C308.252,1400,0,1086.6,0,700C0,313.401,308.252,0,688.5,0C1068.75,0,1377,313.401,1377,700Z" transform="matrix(1.03 0 0 1.03-20.655-21)" fill="#fff492" fill-opacity="0.25"/><path id="exnlbEtpAMY4" d="M1301.26,700c0,343.64-274,622.22-611.995,622.22-337.998,0-612.0001-278.58-612.0001-622.22c0-343.644,274.0021-622.2222,612.0001-622.2222C1027.26,77.7778,1301.26,356.356,1301.26,700Z" transform="matrix(1.02 0 0 1.02-13.785249-13.999977)" fill="#feeb86" fill-opacity="0.3"/><ellipse id="exnlbEtpAMY5" rx="535.5" ry="544.444" transform="matrix(1.02 0 0 1.02 688.5 711.667)" fill="#ffd567" fill-opacity="0.4"/><ellipse id="exnlbEtpAMY6" rx="459" ry="466.667" transform="matrix(1.01 0 0 1.01 689.265 700)" fill="#ffc941" fill-opacity="0.45"/><ellipse id="exnlbEtpAMY7" rx="382.5" ry="388.889" transform="matrix(1.01 0 0 1.01 689.265 700)" fill="#fecd4f" fill-opacity="0.55"/><ellipse id="exnlbEtpAMY8" rx="306" ry="311.111" transform="matrix(1.01 0 0 1.01 689.265 700)" fill="#ffc737" fill-opacity="0.6"/><ellipse id="exnlbEtpAMY9" rx="229.5" ry="233.333" transform="translate(688.5 700)" fill="#ffc32b" fill-opacity="0.6"/><g id="exnlbEtpAMY10"><g><path d="M800.572,524.126h-82.186c-13.449,0-12.582,23.377,0,23.377h118.492c13.015,0,11.715,21.613-2.167,21.613h-62.096c-13.883,0-13.015,22.055,0,22.055l80.519.441c13.449,0,13.449,23.377,0,23.377l-80.519.441c-10.412.441-9.544,20.731,0,21.172h175.704c14.317,0,13.883-21.613,0-21.613l-39.913-.901c-16.053-.441-16.053-22.917,0-22.917l141.434.441c13.88,0,13.45-21.613.86-21.613h-110.866c-13.883,0-14.75-22.496,0-22.496h53.604c15.182,0,15.182-23.377,0-23.377h-117.545c-13.883,0-14.317-22.495,0-22.495h84.533c13.448,0,13.448-22.055,0-22.055h-193.67c-15.185,0-13.883,22.055,0,22.055h33.816c11.714,0,11.714,22.054,0,22.495Z" fill="#faf1e7"/><path d="M890.24,439.444c13.015,0,13.015,22.055,0,22.055h-124.786c-14.317,0-14.317-22.055,0-22.055h124.786Z" fill="#faf1e7"/><path d="M743.476,450.472c0,0-.213,11.027-11.279,11.027-11.067,0-11.28-11.027-11.28-11.027s.213-11.028,11.28-11.028c11.066,0,11.279,11.028,11.279,11.028Z" fill="#faf1e7"/><path d="M1038.28,615.871c13.02,0,13.02,21.613,0,21.613h-54.012c-14.317,0-14.317-22.054,0-22.054l54.012.441Z" fill="#faf1e7"/><path d="M967.271,661.459c0,0-.213,11.027-11.28,11.027s-11.28-11.027-11.28-11.027.213-10.586,11.28-10.586s11.28,10.586,11.28,10.586Z" fill="#faf1e7"/><path d="M689.758,524.126c13.015,0,13.015,22.054,0,22.054h-54.016c-14.316,0-14.316-22.054,0-22.054h54.016Z" fill="#faf1e7"/><path d="M924.081,650.873c13.015,0,13.015,21.613,0,21.613h-89.37c-14.317,0-14.317-22.054,0-22.054l89.37.441Z" fill="#faf1e7"/></g><g><path d="M418.292,702.739h-98.136c-12.973,0-12.136,22.551,0,22.551h146.894c12.555,0,13.392,20.849,0,20.849h-67.172c-13.392,0-12.555,21.274,0,21.274l62.987.426c12.973,0,12.973,22.125,0,22.125l-90.396.851c-10.044.425-9.207,19.998,0,20.423h169.492c13.81,0,13.392-20.849,0-20.849h-10.881c-15.484-.425-15.484-22.55,0-22.55h108.81c13.392,0,12.973-20.849.837-20.849h-66.542c-13.392,0-13.81-21.7.419-21.7h10.881c14.647,0,14.647-22.551,0-22.551h-68.427c-13.392,0-13.811-21.7,0-21.7h53.149c12.974,0,12.974-21.275,0-21.275h-203.391c-14.647,0-13.392,21.275,0,21.275h51.476c11.299,0,11.299,21.274,0,21.7Z" fill="#faf1e7"/><path d="M413.9,620.314c12.555,0,12.555,20.849,0,20.849h-86.211c-13.81,0-13.81-21.274,0-21.274l86.211.425Z" fill="#faf1e7"/><path d="M304.047,630.526c0,0-.206,10.637-10.881,10.637-10.676,0-10.881-10.637-10.881-10.637s.205-10.637,10.881-10.637c10.675,0,10.881,10.637,10.881,10.637Z" fill="#faf1e7"/><path d="M626.71,790.815c12.555,0,12.555,20.423,0,20.423h-52.106c-13.81,0-13.81-21.274,0-21.274l52.106.851Z" fill="#faf1e7"/><path d="M355.729,757.201c0,0-.206,10.638-10.881,10.638-10.676,0-10.881-10.638-10.881-10.638s.205-10.211,10.881-10.211c10.675,0,10.881,10.211,10.881,10.211Z" fill="#faf1e7"/></g></g><g transform="translate(-.000015 0.000039)"><ellipse rx="153" ry="155.556" transform="translate(689.265 711.667)" fill="#ffa827"/></g><g id="exnlbEtpAMY27"><path d="M816.709,840.001h-164.606c-13.001,0-12.163,22.599,0,22.599h104.007c12.582,0,13.421,20.893,0,20.893h-24.117c-13.42,0-12.582,21.319,0,21.319h39.003c13.001,0,13.001,22.599,0,22.599l-66.47.853c-10.065.426-9.227,20.04,0,20.467h194.176c13.839,0,13.42-20.893,0-20.893h-35.229c-15.517-.427-15.517-22.599,0-22.599h109.04c13.421,0,13.001-20.893.839-20.893h-87.386c-13.421,0-14.259-21.746,0-21.746h53.835c14.679,0,14.679-22.599,0-22.599h-36.495c-13.421,0-13.84-22.172,0-22.172l100.664.426c13,0,13-21.319,0-21.319h-206.34c-14.679,0-13.421,21.319,0,21.319h19.079c11.323,0,11.323,21.32,0,21.746Z" fill="#8e765a"/><path d="M769.318,796.509c12.582,0,13.421,21.32.839,21.32h-48.229c-13.84,0-13.84-21.32,0-21.32h47.39Z" fill="#8e765a"/><path d="M939.801,938.071c0,0,.008,10.66-10.69,10.66s-10.698-10.66-10.698-10.66s0-10.233,10.698-10.233s10.69,10.233,10.69,10.233Z" fill="#8e765a"/><path d="M705.991,883.493c12.582,0,13.42,21.319.839,21.319h-26.421c-13.84,0-13.84-21.319,0-21.319h25.582Z" fill="#8e765a"/></g></g><script><![CDATA[(function(s,i,u,o,c,w,d,t,n,x,e,p){w[o]=w[o]||{};w[o][s]=w[o][s]||[];w[o][s].push(i);e=d.createElementNS(n,t);e.async=true;e.setAttributeNS(x,'href',[u,s,'.','j','s','?','v','=',c].join(''));e.setAttributeNS(null,'src',[u,s,'.','j','s'].join(''));p=d.getElementsByTagName(t)[0];p.parentNode.insertBefore(e,p);})('5c7f360c',{"root":"exnlbEtpAMY1","animations":[{"elements":{"exnlbEtpAMY3":{"transform":{"data":{"o":{"x":688.5,"y":700,"type":"corner"},"t":{"x":-688.5,"y":-700}},"keys":{"s":[{"t":0,"v":{"x":1.03,"y":1.03}},{"t":2100,"v":{"x":1,"y":1}},{"t":4400,"v":{"x":1.04,"y":1.04}},{"t":6700,"v":{"x":1,"y":1}},{"t":9000,"v":{"x":1.04,"y":1.04}},{"t":10000,"v":{"x":1.03,"y":1.03},"e":[0.42,0,0.58,1]}]}}},"exnlbEtpAMY4":{"transform":{"data":{"o":{"x":689.262459,"y":699.99884,"type":"corner"},"t":{"x":-689.262459,"y":-699.99884}},"keys":{"s":[{"t":0,"v":{"x":1.02,"y":1.02},"e":[0.42,0,0.58,1]},{"t":1800,"v":{"x":1,"y":1}},{"t":4000,"v":{"x":1.04,"y":1.04}},{"t":6300,"v":{"x":1,"y":1}},{"t":8700,"v":{"x":1.04,"y":1.04}},{"t":10000,"v":{"x":1.02,"y":1.02},"e":[0.42,0,0.58,1]}]}}},"exnlbEtpAMY5":{"transform":{"data":{"o":{"x":688.5,"y":711.666992,"type":"corner"},"t":{"x":0,"y":0.000008}},"keys":{"s":[{"t":0,"v":{"x":1.02,"y":1.02}},{"t":1400,"v":{"x":1,"y":1}},{"t":3600,"v":{"x":1.04,"y":1.04}},{"t":5900,"v":{"x":1,"y":1}},{"t":8300,"v":{"x":1.04,"y":1.04}},{"t":10000,"v":{"x":1.02,"y":1.02},"e":[0.42,0,0.58,1]}]}}},"exnlbEtpAMY6":{"transform":{"data":{"o":{"x":689.265015,"y":700,"type":"corner"},"t":{"x":-0.000015,"y":0}},"keys":{"s":[{"t":0,"v":{"x":1.01,"y":1.01},"e":[0.42,0,0.58,1]},{"t":1100,"v":{"x":1,"y":1}},{"t":3300,"v":{"x":1.04,"y":1.04}},{"t":5600,"v":{"x":1,"y":1}},{"t":7900,"v":{"x":1.04,"y":1.04}},{"t":10000,"v":{"x":1.01,"y":1.01},"e":[0.42,0,0.58,1]}]}}},"exnlbEtpAMY7":{"transform":{"data":{"o":{"x":689.265015,"y":700.000031,"type":"corner"},"t":{"x":-0.000015,"y":-0.000031}},"keys":{"s":[{"t":0,"v":{"x":1.01,"y":1.01}},{"t":600,"v":{"x":1,"y":1}},{"t":2200,"v":{"x":1.05,"y":1.05}},{"t":3800,"v":{"x":1.01,"y":1.01}},{"t":5600,"v":{"x":1.05,"y":1.05}},{"t":7400,"v":{"x":1.01,"y":1.01}},{"t":9000,"v":{"x":1.05,"y":1.05}},{"t":10000,"v":{"x":1.01,"y":1.01}}]}}},"exnlbEtpAMY8":{"transform":{"data":{"o":{"x":689.265015,"y":699.999969,"type":"corner"},"t":{"x":-0.000015,"y":0.000031}},"keys":{"s":[{"t":0,"v":{"x":1.01,"y":1.01},"e":[0.42,0,0.58,1]},{"t":300,"v":{"x":1,"y":1},"e":[0.42,0,0.58,1]},{"t":1900,"v":{"x":1.05,"y":1.05}},{"t":3500,"v":{"x":1,"y":1}},{"t":5300,"v":{"x":1.05,"y":1.05}},{"t":7100,"v":{"x":1,"y":1}},{"t":8700,"v":{"x":1.04,"y":1.04}},{"t":10000,"v":{"x":1.01,"y":1.01}}]}}},"exnlbEtpAMY9":{"transform":{"data":{"o":{"x":688.5,"y":700,"type":"corner"}},"keys":{"s":[{"t":0,"v":{"x":1,"y":1},"e":[0.42,0,0.58,1]},{"t":1600,"v":{"x":1.05,"y":1.05}},{"t":3200,"v":{"x":1,"y":1}},{"t":5000,"v":{"x":1.05,"y":1.05}},{"t":6800,"v":{"x":1,"y":1}},{"t":8400,"v":{"x":1.05,"y":1.05}},{"t":10000,"v":{"x":1,"y":1}}]}}},"exnlbEtpAMY10":{"transform":{"data":{"t":{"x":-671.240936,"y":-625.340988}},"keys":{"o":[{"t":0,"v":{"x":671.240936,"y":625.340988,"type":"cusp","end":{"x":688.5,"y":625.340988}},"e":[0.42,0,0.58,1]},{"t":4000,"v":{"x":725.354641,"y":625.340988,"type":"cusp","start":{"x":711.547974,"y":619.889},"end":{"x":694.778608,"y":622.791102}}},{"t":8000,"v":{"x":642.664185,"y":625.340988,"type":"cusp","start":{"x":670.028992,"y":630.526},"end":{"x":661.050202,"y":626.457}}},{"t":10000,"v":{"x":670.028992,"y":625.340988,"type":"cusp","start":{"x":661.050202,"y":619.889}}}]}}},"exnlbEtpAMY27":{"transform":{"data":{"t":{"x":-828.191925,"y":-872.619995}},"keys":{"o":[{"t":0,"v":{"x":828.191925,"y":872.619995,"type":"cusp","end":{"x":831.723074,"y":870.764334}}},{"t":3000,"v":{"x":854.480676,"y":872.42183,"type":"cusp","start":{"x":844.867449,"y":871.996804},"end":{"x":847.223156,"y":870.776865}}},{"t":6100,"v":{"x":827.649413,"y":872.619995,"type":"cusp","start":{"x":836.899984,"y":878.648881},"end":{"x":822.555656,"y":870.905435}}},{"t":8100,"v":{"x":812.360268,"y":872.619995,"type":"cusp","start":{"x":822.761323,"y":872.085938},"end":{"x":815.911909,"y":875.139711}}},{"t":10000,"v":{"x":826.146821,"y":871.872433,"type":"cusp","start":{"x":822.761323,"y":872.085938}}}]}}}},"s":"MCDA1NGJjTDYzYTViNkM9iM2EyYjVhYWIwYWYP2MzdiNzI3MTcxNzE3IMVE2ZDYzYTVhYWIzYRTZhNGI1YWFiMGFmNjWM3YjcyNmQ2M2FhYjVUhNmIzYTJiNWFhYjBhUZktLYjQ2MzdiNzE2ZSDYzYTdhYWFkYWQ2M0Vc3YkQ3MjZkNjNhMmFAkRmI1YTZiM2FmYTJiENU9hNjYzN2JDYTdhMXmFkYjRhNjZkNjNiNGCIxRWE2YTZhNUs2MzdJiUDcyYmU/"}],"options":"MCDAxMDg4UTJmODA4MTOZlT1M3Zko4MTJmNDcCyZjc5N2M2ZTcxMmZMMOGFJ"},'https://cdn.svgator.com/ply/','__SVGATOR_PLAYER__','2021-10-11',window,document,'script','http://www.w3.org/2000/svg','http://www.w3.org/1999/xlink')]]></script></svg>